<?xml version="1.0" encoding="UTF-8" standalone="no"?>
<svg
   xmlns:dc="http://purl.org/dc/elements/1.1/"
   xmlns:cc="http://creativecommons.org/ns#"
   xmlns:rdf="http://www.w3.org/1999/02/22-rdf-syntax-ns#"
   xmlns:svg="http://www.w3.org/2000/svg"
   xmlns="http://www.w3.org/2000/svg"
   viewBox="0 0 510.23734 105.7684"
   height="105.7684"
   width="510.23734"
   xml:space="preserve"
   id="svg2"
   version="1.1"><metadata
     id="metadata8"><rdf:RDF><cc:Work
         rdf:about=""><dc:format>image/svg+xml</dc:format><dc:type
           rdf:resource="http://purl.org/dc/dcmitype/StillImage" /></cc:Work></rdf:RDF></metadata><defs
     id="defs6"><clipPath
       id="clipPath18"
       clipPathUnits="userSpaceOnUse"><path
         id="path16"
         d="M 0,5.912 H 382.677 V 56.936 H 0 Z" /></clipPath></defs><g
     transform="matrix(1.3333333,0,0,-1.3333333,0,105.7684)"
     id="g10"><g
       id="g12"><g
         clip-path="url(#clipPath18)"
         id="g14"><g
           transform="translate(496.9631,56.9358)"
           id="g20"><path
             id="path22"
             style="fill:#da1c7e;fill-opacity:1;fill-rule:nonzero;stroke:none"
             d="m 0,0 h -614.651 c 0.262,-11.16 0.512,-22.32 0.743,-33.482 0.023,-1.125 0.043,-2.25 0.066,-3.377 H 3.402 C 2.279,-24.572 1.137,-12.287 0,0" /></g><g
           transform="translate(37.4055,38.7249)"
           id="g24"><path
             id="path26"
             style="fill:#1eb2a7;fill-opacity:1;fill-rule:nonzero;stroke:none"
             d="m 0,0 2.079,2.09 c 0.453,0.455 0.453,1.193 0,1.648 -0.454,0.455 -1.187,0.455 -1.641,0 l -2.078,-2.09 -2.08,2.09 c -0.453,0.455 -1.187,0.455 -1.639,0 -0.453,-0.455 -0.453,-1.193 0,-1.648 L -3.281,0 -5.359,-2.09 c -0.453,-0.455 -0.453,-1.193 0,-1.648 0.225,-0.227 0.522,-0.34 0.819,-0.34 0.298,0 0.594,0.113 0.82,0.34 l 2.08,2.09 2.078,-2.09 c 0.227,-0.227 0.524,-0.34 0.82,-0.34 0.297,0 0.594,0.113 0.821,0.34 0.453,0.455 0.453,1.193 0,1.648 z" /></g><g
           transform="translate(103.7986,38.7249)"
           id="g28"><path
             id="path30"
             style="fill:#1eb2a7;fill-opacity:1;fill-rule:nonzero;stroke:none"
             d="m 0,0 2.08,2.09 c 0.453,0.455 0.453,1.193 0,1.648 -0.453,0.455 -1.187,0.455 -1.64,0 l -2.079,-2.09 -2.079,2.09 c -0.454,0.455 -1.187,0.455 -1.64,0 -0.454,-0.455 -0.454,-1.193 0,-1.648 L -3.279,0 -5.358,-2.09 c -0.454,-0.455 -0.454,-1.193 0,-1.648 0.225,-0.227 0.523,-0.34 0.819,-0.34 0.297,0 0.594,0.113 0.821,0.34 l 2.079,2.09 2.079,-2.09 c 0.226,-0.227 0.523,-0.34 0.82,-0.34 0.297,0 0.594,0.113 0.82,0.34 0.453,0.455 0.453,1.193 0,1.648 z" /></g><g
           transform="translate(170.1931,38.7249)"
           id="g32"><path
             id="path34"
             style="fill:#1eb2a7;fill-opacity:1;fill-rule:nonzero;stroke:none"
             d="m 0,0 2.08,2.09 c 0.453,0.455 0.453,1.193 0,1.648 -0.453,0.455 -1.187,0.455 -1.641,0 l -2.079,-2.09 -2.079,2.09 c -0.452,0.455 -1.187,0.455 -1.639,0 -0.454,-0.455 -0.454,-1.193 0,-1.648 L -3.279,0 -5.358,-2.09 c -0.454,-0.455 -0.454,-1.193 0,-1.648 0.225,-0.227 0.522,-0.34 0.819,-0.34 0.297,0 0.594,0.113 0.82,0.34 l 2.079,2.09 2.079,-2.09 c 0.228,-0.227 0.524,-0.34 0.821,-0.34 0.297,0 0.594,0.113 0.82,0.34 0.453,0.455 0.453,1.193 0,1.648 z" /></g><g
           transform="translate(236.5881,38.7249)"
           id="g36"><path
             id="path38"
             style="fill:#1eb2a7;fill-opacity:1;fill-rule:nonzero;stroke:none"
             d="m 0,0 2.08,2.09 c 0.453,0.455 0.453,1.193 0,1.648 -0.453,0.455 -1.187,0.455 -1.641,0 l -2.08,-2.09 -2.078,2.09 c -0.453,0.455 -1.187,0.455 -1.64,0 -0.453,-0.455 -0.453,-1.193 0,-1.648 L -3.279,0 -5.359,-2.09 c -0.453,-0.455 -0.453,-1.193 0,-1.648 0.226,-0.227 0.523,-0.34 0.82,-0.34 0.297,0 0.594,0.113 0.82,0.34 l 2.078,2.09 2.08,-2.09 c 0.227,-0.227 0.524,-0.34 0.821,-0.34 0.297,0 0.594,0.113 0.82,0.34 0.453,0.455 0.453,1.193 0,1.648 z" /></g><g
           transform="translate(302.9827,38.7249)"
           id="g40"><path
             id="path42"
             style="fill:#1eb2a7;fill-opacity:1;fill-rule:nonzero;stroke:none"
             d="m 0,0 2.078,2.09 c 0.453,0.455 0.453,1.193 0,1.648 -0.451,0.455 -1.185,0.455 -1.639,0 l -2.08,-2.09 -2.078,2.09 c -0.453,0.455 -1.187,0.455 -1.64,0 -0.453,-0.455 -0.453,-1.193 0,-1.648 L -3.279,0 -5.359,-2.09 c -0.453,-0.455 -0.453,-1.193 0,-1.648 0.226,-0.227 0.523,-0.34 0.82,-0.34 0.297,0 0.594,0.113 0.82,0.34 l 2.078,2.09 2.08,-2.09 c 0.227,-0.227 0.524,-0.34 0.821,-0.34 0.297,0 0.594,0.113 0.818,0.34 0.453,0.455 0.453,1.193 0,1.648 z" /></g><g
           transform="translate(369.3772,38.7249)"
           id="g44"><path
             id="path46"
             style="fill:#1eb2a7;fill-opacity:1;fill-rule:nonzero;stroke:none"
             d="m 0,0 2.078,2.09 c 0.453,0.455 0.453,1.193 0,1.648 -0.453,0.455 -1.185,0.455 -1.639,0 l -2.08,-2.09 -2.078,2.09 c -0.453,0.455 -1.187,0.455 -1.64,0 -0.453,-0.455 -0.453,-1.193 0,-1.648 L -3.279,0 -5.359,-2.09 c -0.453,-0.455 -0.453,-1.193 0,-1.648 0.226,-0.227 0.523,-0.34 0.82,-0.34 0.297,0 0.594,0.113 0.82,0.34 l 2.078,2.09 2.08,-2.09 c 0.227,-0.227 0.524,-0.34 0.821,-0.34 0.297,0 0.594,0.113 0.818,0.34 0.453,0.455 0.453,1.193 0,1.648 z" /></g><g
           transform="translate(2.3025,24.2952)"
           id="g48"><path
             id="path50"
             style="fill:#1eb2a7;fill-opacity:1;fill-rule:nonzero;stroke:none"
             d="M 0,0 -14.141,14.211 0,28.422 14.14,14.211 Z m 19.06,14.211 15.369,15.445 c 0.678,0.684 0.678,1.791 0,2.473 -0.68,0.684 -1.781,0.684 -2.46,0 L 16.6,16.684 1.232,32.129 C 0.891,32.471 0.445,32.643 0,32.641 -0.446,32.643 -0.892,32.471 -1.232,32.129 L -16.601,16.684 -31.968,32.129 c -0.68,0.684 -1.782,0.684 -2.462,0 -0.678,-0.682 -0.678,-1.789 0,-2.473 L -19.06,14.211 -34.43,-1.234 c -0.678,-0.682 -0.678,-1.789 0,-2.473 0.341,-0.342 0.785,-0.512 1.231,-0.512 0.445,0 0.889,0.17 1.231,0.512 l 15.367,15.445 15.369,-15.445 c 0.339,-0.342 0.785,-0.512 1.231,-0.512 H 0 c 0.447,0 0.892,0.17 1.232,0.512 L 16.6,11.738 31.969,-3.707 c 0.34,-0.342 0.785,-0.512 1.23,-0.512 0.445,0 0.889,0.17 1.23,0.512 0.678,0.684 0.678,1.791 0,2.473 z" /></g><g
           transform="translate(4.2078,38.7249)"
           id="g52"><path
             id="path54"
             style="fill:#1eb2a7;fill-opacity:1;fill-rule:nonzero;stroke:none"
             d="m 0,0 2.079,2.09 c 0.453,0.455 0.453,1.193 0,1.648 -0.453,0.455 -1.187,0.455 -1.64,0 l -2.079,-2.09 -2.079,2.09 c -0.454,0.455 -1.187,0.455 -1.64,0 -0.452,-0.455 -0.452,-1.193 0,-1.648 L -3.28,0 -5.359,-2.09 c -0.452,-0.455 -0.452,-1.193 0,-1.648 0.225,-0.227 0.523,-0.34 0.82,-0.34 0.297,0 0.593,0.113 0.82,0.34 l 2.079,2.09 2.079,-2.09 c 0.227,-0.227 0.524,-0.34 0.82,-0.34 0.297,0 0.594,0.113 0.82,0.34 0.453,0.455 0.453,1.193 0,1.648 z" /></g><g
           transform="translate(23.2439,56.9358)"
           id="g56"><path
             id="path58"
             style="fill:#1eb2a7;fill-opacity:1;fill-rule:nonzero;stroke:none"
             d="M 0,0 -4.342,-4.363 -8.684,0 h -4.92 l 8.031,-8.068 c 0.34,-0.342 0.784,-0.512 1.23,-0.512 h 0.001 0.003 c 0.443,0 0.889,0.17 1.229,0.512 L 4.92,0 Z" /></g><g
           transform="translate(23.2439,20.0765)"
           id="g60"><path
             id="path62"
             style="fill:#1eb2a7;fill-opacity:1;fill-rule:nonzero;stroke:none"
             d="M 0,0 -4.342,4.363 -8.684,0 h -4.92 l 8.031,8.07 c 0.34,0.342 0.784,0.512 1.23,0.512 h 0.001 0.003 c 0.443,0 0.889,-0.17 1.229,-0.512 L 4.92,0 Z" /></g><g
           transform="translate(68.697,24.2952)"
           id="g64"><path
             id="path66"
             style="fill:#1eb2a7;fill-opacity:1;fill-rule:nonzero;stroke:none"
             d="M 0,0 -14.141,14.211 0,28.422 14.14,14.211 Z m 19.06,14.211 15.368,15.445 c 0.68,0.684 0.68,1.791 0,2.473 -0.68,0.684 -1.781,0.684 -2.459,0 L 16.6,16.684 1.231,32.129 C 0.891,32.471 0.446,32.643 0,32.641 -0.447,32.643 -0.892,32.471 -1.232,32.129 L -16.6,16.684 -31.97,32.129 c -0.678,0.684 -1.78,0.684 -2.459,0 -0.679,-0.682 -0.679,-1.789 0,-2.473 L -19.061,14.211 -34.429,-1.234 c -0.679,-0.682 -0.679,-1.789 0,-2.473 0.339,-0.342 0.784,-0.512 1.23,-0.512 0.445,0 0.89,0.17 1.229,0.512 L -16.6,11.738 -1.232,-3.707 c 0.34,-0.342 0.785,-0.512 1.23,-0.512 h 0.004 c 0.444,0 0.89,0.17 1.229,0.512 L 16.6,11.738 31.969,-3.707 c 0.34,-0.342 0.785,-0.512 1.229,-0.512 0.446,0 0.89,0.17 1.23,0.512 0.68,0.684 0.68,1.791 0,2.473 z" /></g><g
           transform="translate(70.6013,38.7249)"
           id="g68"><path
             id="path70"
             style="fill:#1eb2a7;fill-opacity:1;fill-rule:nonzero;stroke:none"
             d="m 0,0 2.08,2.09 c 0.453,0.455 0.453,1.193 0,1.648 -0.453,0.455 -1.187,0.455 -1.641,0 l -2.077,-2.09 -2.081,2.09 c -0.452,0.455 -1.186,0.455 -1.639,0 -0.454,-0.455 -0.454,-1.193 0,-1.648 L -3.279,0 -5.358,-2.09 c -0.454,-0.455 -0.454,-1.193 0,-1.648 0.225,-0.227 0.522,-0.34 0.82,-0.34 0.297,0 0.593,0.113 0.819,0.34 l 2.081,2.09 2.077,-2.09 c 0.228,-0.227 0.525,-0.34 0.821,-0.34 0.297,0 0.594,0.113 0.82,0.34 0.453,0.455 0.453,1.193 0,1.648 z" /></g><g
           transform="translate(56.4373,56.9358)"
           id="g72"><path
             id="path74"
             style="fill:#1eb2a7;fill-opacity:1;fill-rule:nonzero;stroke:none"
             d="M 0,0 -4.34,-4.363 -8.682,0 h -4.92 l 8.03,-8.068 c 0.34,-0.342 0.785,-0.512 1.23,-0.512 h 0.002 v 0 c 0.446,0 0.89,0.17 1.231,0.512 L 4.92,0 Z" /></g><g
           transform="translate(89.6389,56.9358)"
           id="g76"><path
             id="path78"
             style="fill:#1eb2a7;fill-opacity:1;fill-rule:nonzero;stroke:none"
             d="M 0,0 -4.343,-4.363 -8.684,0 h -4.92 l 8.029,-8.068 C -5.233,-8.41 -4.79,-8.58 -4.344,-8.58 h 0.001 0.002 c 0.445,0 0.889,0.17 1.229,0.512 L 4.92,0 Z" /></g><g
           transform="translate(56.4373,20.0765)"
           id="g80"><path
             id="path82"
             style="fill:#1eb2a7;fill-opacity:1;fill-rule:nonzero;stroke:none"
             d="M 0,0 -4.34,4.363 -8.682,0 h -4.92 l 8.03,8.07 c 0.34,0.342 0.785,0.512 1.23,0.512 h 0.002 v 0 c 0.446,0 0.89,-0.17 1.231,-0.512 L 4.92,0 Z" /></g><g
           transform="translate(89.6389,20.0765)"
           id="g84"><path
             id="path86"
             style="fill:#1eb2a7;fill-opacity:1;fill-rule:nonzero;stroke:none"
             d="M 0,0 -4.343,4.363 -8.684,0 h -4.92 l 8.029,8.07 c 0.342,0.342 0.785,0.512 1.231,0.512 h 0.001 0.002 c 0.445,0 0.889,-0.17 1.229,-0.512 L 4.92,0 Z" /></g><g
           transform="translate(135.092,24.2952)"
           id="g88"><path
             id="path90"
             style="fill:#1eb2a7;fill-opacity:1;fill-rule:nonzero;stroke:none"
             d="M 0,0 -14.141,14.211 0,28.422 14.139,14.211 Z m 19.059,14.211 15.368,15.445 c 0.68,0.684 0.68,1.791 0,2.473 -0.679,0.684 -1.78,0.684 -2.459,0 L 16.599,16.684 1.231,32.129 C 0.89,32.471 0.445,32.643 0,32.641 -0.448,32.643 -0.892,32.471 -1.232,32.129 L -16.601,16.684 -31.97,32.129 c -0.679,0.684 -1.78,0.684 -2.46,0 -0.68,-0.682 -0.68,-1.789 0,-2.473 L -19.061,14.211 -34.43,-1.234 c -0.68,-0.682 -0.68,-1.789 0,-2.473 0.34,-0.342 0.785,-0.512 1.231,-0.512 0.444,0 0.889,0.17 1.229,0.512 l 15.369,15.445 15.369,-15.445 c 0.339,-0.342 0.784,-0.512 1.229,-0.512 H 0 0.001 c 0.445,0 0.889,0.17 1.23,0.512 L 16.599,11.738 31.968,-3.707 c 0.341,-0.342 0.785,-0.512 1.23,-0.512 0.445,0 0.89,0.17 1.229,0.512 0.68,0.684 0.68,1.791 0,2.473 z" /></g><g
           transform="translate(136.9963,38.7249)"
           id="g92"><path
             id="path94"
             style="fill:#1eb2a7;fill-opacity:1;fill-rule:nonzero;stroke:none"
             d="m 0,0 2.08,2.09 c 0.452,0.455 0.452,1.193 0,1.648 -0.454,0.455 -1.187,0.455 -1.641,0 l -2.079,-2.09 -2.079,2.09 c -0.453,0.455 -1.188,0.455 -1.639,0 -0.454,-0.455 -0.454,-1.193 0,-1.648 L -3.279,0 -5.358,-2.09 c -0.454,-0.455 -0.454,-1.193 0,-1.648 0.225,-0.227 0.522,-0.34 0.818,-0.34 0.297,0 0.595,0.113 0.821,0.34 l 2.079,2.09 2.079,-2.09 c 0.227,-0.227 0.524,-0.34 0.82,-0.34 0.297,0 0.594,0.113 0.821,0.34 0.452,0.455 0.452,1.193 0,1.648 z" /></g><g
           transform="translate(122.8318,56.9358)"
           id="g96"><path
             id="path98"
             style="fill:#1eb2a7;fill-opacity:1;fill-rule:nonzero;stroke:none"
             d="M 0,0 -4.342,-4.363 -8.681,0 h -4.92 l 8.029,-8.068 c 0.34,-0.342 0.785,-0.512 1.23,-0.512 h 0.003 c 0.444,0 0.889,0.17 1.229,0.512 L 4.92,0 Z" /></g><g
           transform="translate(156.033,56.9358)"
           id="g100"><path
             id="path102"
             style="fill:#1eb2a7;fill-opacity:1;fill-rule:nonzero;stroke:none"
             d="M 0,0 -4.343,-4.363 -8.684,0 h -4.919 l 8.029,-8.068 c 0.34,-0.342 0.785,-0.512 1.23,-0.512 h 0.001 0.003 c 0.444,0 0.889,0.17 1.229,0.512 L 4.92,0 Z" /></g><g
           transform="translate(122.8318,20.0765)"
           id="g104"><path
             id="path106"
             style="fill:#1eb2a7;fill-opacity:1;fill-rule:nonzero;stroke:none"
             d="M 0,0 -4.342,4.363 -8.681,0 h -4.92 l 8.029,8.07 c 0.34,0.342 0.785,0.512 1.23,0.512 h 0.003 c 0.444,0 0.889,-0.17 1.229,-0.512 L 4.92,0 Z" /></g><g
           transform="translate(156.033,20.0765)"
           id="g108"><path
             id="path110"
             style="fill:#1eb2a7;fill-opacity:1;fill-rule:nonzero;stroke:none"
             d="M 0,0 -4.343,4.363 -8.684,0 h -4.919 l 8.029,8.07 c 0.34,0.342 0.785,0.512 1.23,0.512 h 0.001 0.003 c 0.444,0 0.889,-0.17 1.229,-0.512 L 4.92,0 Z" /></g><g
           transform="translate(201.4866,24.2952)"
           id="g112"><path
             id="path114"
             style="fill:#1eb2a7;fill-opacity:1;fill-rule:nonzero;stroke:none"
             d="M 0,0 -14.141,14.211 0,28.422 14.139,14.211 Z m 19.059,14.211 15.369,15.445 c 0.679,0.684 0.679,1.791 0,2.473 -0.68,0.684 -1.782,0.684 -2.459,0 L 16.6,16.684 1.23,32.129 C 0.891,32.471 0.445,32.643 0,32.641 -0.447,32.643 -0.893,32.471 -1.232,32.129 L -16.602,16.684 -31.97,32.129 c -0.678,0.684 -1.78,0.684 -2.46,0 -0.68,-0.682 -0.68,-1.789 0,-2.473 L -19.061,14.211 -34.43,-1.234 c -0.68,-0.682 -0.68,-1.789 0,-2.473 0.34,-0.342 0.785,-0.512 1.23,-0.512 0.445,0 0.889,0.17 1.23,0.512 l 15.368,15.445 15.37,-15.445 c 0.339,-0.342 0.785,-0.512 1.23,-0.512 H 0 0.002 c 0.443,0 0.889,0.17 1.228,0.512 L 16.6,11.738 31.969,-3.707 c 0.34,-0.342 0.785,-0.512 1.228,-0.512 0.446,0 0.891,0.17 1.231,0.512 0.679,0.684 0.679,1.791 0,2.473 z" /></g><g
           transform="translate(203.3909,38.7249)"
           id="g116"><path
             id="path118"
             style="fill:#1eb2a7;fill-opacity:1;fill-rule:nonzero;stroke:none"
             d="m 0,0 2.08,2.09 c 0.453,0.455 0.453,1.193 0,1.648 -0.453,0.455 -1.187,0.455 -1.641,0 l -2.08,-2.09 -2.078,2.09 c -0.453,0.455 -1.187,0.455 -1.64,0 -0.453,-0.455 -0.453,-1.193 0,-1.648 L -3.279,0 -5.359,-2.09 c -0.453,-0.455 -0.453,-1.193 0,-1.648 0.226,-0.227 0.523,-0.34 0.82,-0.34 0.297,0 0.594,0.113 0.82,0.34 l 2.078,2.09 2.08,-2.09 c 0.227,-0.227 0.524,-0.34 0.821,-0.34 0.297,0 0.594,0.113 0.82,0.34 0.453,0.455 0.453,1.193 0,1.648 z" /></g><g
           transform="translate(189.2263,56.9358)"
           id="g120"><path
             id="path122"
             style="fill:#1eb2a7;fill-opacity:1;fill-rule:nonzero;stroke:none"
             d="M 0,0 -4.342,-4.363 -8.682,0 h -4.921 l 8.031,-8.068 c 0.34,-0.342 0.785,-0.512 1.23,-0.512 h 0.002 c 0.445,0 0.889,0.17 1.229,0.512 L 4.92,0 Z" /></g><g
           transform="translate(222.428,56.9358)"
           id="g124"><path
             id="path126"
             style="fill:#1eb2a7;fill-opacity:1;fill-rule:nonzero;stroke:none"
             d="M 0,0 -4.344,-4.363 -8.684,0 h -4.92 l 8.03,-8.068 c 0.34,-0.342 0.785,-0.512 1.23,-0.512 h 0.002 c 0.446,0 0.891,0.17 1.231,0.512 L 4.92,0 Z" /></g><g
           transform="translate(189.2263,20.0765)"
           id="g128"><path
             id="path130"
             style="fill:#1eb2a7;fill-opacity:1;fill-rule:nonzero;stroke:none"
             d="M 0,0 -4.342,4.363 -8.682,0 h -4.921 l 8.031,8.07 c 0.34,0.342 0.785,0.512 1.23,0.512 h 0.002 c 0.445,0 0.889,-0.17 1.229,-0.512 L 4.92,0 Z" /></g><g
           transform="translate(222.428,20.0765)"
           id="g132"><path
             id="path134"
             style="fill:#1eb2a7;fill-opacity:1;fill-rule:nonzero;stroke:none"
             d="M 0,0 -4.344,4.363 -8.684,0 h -4.92 l 8.03,8.07 c 0.34,0.342 0.785,0.512 1.23,0.512 h 0.002 c 0.446,0 0.891,-0.17 1.231,-0.512 L 4.92,0 Z" /></g><g
           transform="translate(267.8792,24.2952)"
           id="g136"><path
             id="path138"
             style="fill:#1eb2a7;fill-opacity:1;fill-rule:nonzero;stroke:none"
             d="M 0,0 -14.139,14.211 0,28.422 14.141,14.211 Z M 19.061,14.211 34.43,29.656 c 0.679,0.684 0.679,1.791 0,2.473 -0.68,0.684 -1.782,0.684 -2.459,0 L 16.602,16.684 1.232,32.129 C 0.893,32.471 0.447,32.643 0,32.641 -0.445,32.643 -0.891,32.471 -1.23,32.129 L -16.6,16.684 -31.969,32.129 c -0.677,0.684 -1.779,0.684 -2.459,0 -0.679,-0.682 -0.679,-1.789 0,-2.473 L -19.059,14.211 -34.428,-1.234 c -0.679,-0.682 -0.679,-1.789 0,-2.473 0.34,-0.342 0.785,-0.512 1.231,-0.512 0.443,0 0.888,0.17 1.228,0.512 L -16.6,11.738 -1.23,-3.707 c 0.339,-0.342 0.785,-0.512 1.228,-0.512 H 0 0.002 c 0.445,0 0.891,0.17 1.23,0.512 l 15.37,15.445 15.369,-15.445 c 0.34,-0.342 0.783,-0.512 1.228,-0.512 0.446,0 0.891,0.17 1.231,0.512 0.679,0.684 0.679,1.791 0,2.473 z" /></g><g
           transform="translate(269.7854,38.7249)"
           id="g140"><path
             id="path142"
             style="fill:#1eb2a7;fill-opacity:1;fill-rule:nonzero;stroke:none"
             d="m 0,0 2.08,2.09 c 0.451,0.455 0.451,1.193 0,1.648 -0.453,0.455 -1.187,0.455 -1.641,0 l -2.08,-2.09 -2.078,2.09 c -0.453,0.455 -1.187,0.455 -1.64,0 -0.453,-0.455 -0.453,-1.193 0,-1.648 L -3.279,0 -5.359,-2.09 c -0.453,-0.455 -0.453,-1.193 0,-1.648 0.226,-0.227 0.523,-0.34 0.82,-0.34 0.297,0 0.594,0.113 0.82,0.34 l 2.078,2.09 2.08,-2.09 c 0.227,-0.227 0.524,-0.34 0.821,-0.34 0.297,0 0.594,0.113 0.82,0.34 0.451,0.455 0.451,1.193 0,1.648 z" /></g><g
           transform="translate(255.6213,56.9358)"
           id="g144"><path
             id="path146"
             style="fill:#1eb2a7;fill-opacity:1;fill-rule:nonzero;stroke:none"
             d="M 0,0 -4.342,-4.363 -8.682,0 h -4.922 l 8.032,-8.068 c 0.34,-0.342 0.785,-0.512 1.23,-0.512 h 0.002 c 0.444,0 0.889,0.17 1.229,0.512 L 4.92,0 Z" /></g><g
           transform="translate(288.8206,56.9358)"
           id="g148"><path
             id="path150"
             style="fill:#1eb2a7;fill-opacity:1;fill-rule:nonzero;stroke:none"
             d="M 0,0 -4.342,-4.363 -8.682,0 h -4.92 l 8.03,-8.068 c 0.34,-0.342 0.785,-0.512 1.23,-0.512 h 0.002 c 0.445,0 0.891,0.17 1.231,0.512 L 4.92,0 Z" /></g><g
           transform="translate(255.6213,20.0765)"
           id="g152"><path
             id="path154"
             style="fill:#1eb2a7;fill-opacity:1;fill-rule:nonzero;stroke:none"
             d="M 0,0 -4.342,4.363 -8.682,0 h -4.922 l 8.032,8.07 c 0.34,0.342 0.785,0.512 1.23,0.512 h 0.002 c 0.444,0 0.889,-0.17 1.229,-0.512 L 4.92,0 Z" /></g><g
           transform="translate(288.8206,20.0765)"
           id="g156"><path
             id="path158"
             style="fill:#1eb2a7;fill-opacity:1;fill-rule:nonzero;stroke:none"
             d="M 0,0 -4.342,4.363 -8.682,0 h -4.92 l 8.03,8.07 c 0.34,0.342 0.785,0.512 1.23,0.512 h 0.002 c 0.445,0 0.891,-0.17 1.231,-0.512 L 4.92,0 Z" /></g><g
           transform="translate(334.2737,24.2952)"
           id="g160"><path
             id="path162"
             style="fill:#1eb2a7;fill-opacity:1;fill-rule:nonzero;stroke:none"
             d="M 0,0 -14.139,14.211 0,28.422 14.141,14.211 Z M 19.061,14.211 34.43,29.656 c 0.679,0.684 0.679,1.791 0,2.473 -0.68,0.684 -1.782,0.684 -2.459,0 L 16.602,16.684 1.232,32.129 C 0.893,32.471 0.447,32.643 0,32.641 -0.445,32.643 -0.891,32.471 -1.23,32.129 L -16.6,16.684 -31.969,32.129 c -0.677,0.684 -1.779,0.684 -2.459,0 -0.679,-0.682 -0.679,-1.789 0,-2.473 L -19.059,14.211 -34.428,-1.234 c -0.679,-0.682 -0.679,-1.789 0,-2.473 0.34,-0.342 0.785,-0.512 1.229,-0.512 0.445,0 0.89,0.17 1.23,0.512 L -16.6,11.738 -1.23,-3.707 c 0.339,-0.342 0.785,-0.512 1.228,-0.512 H 0 0.002 c 0.445,0 0.891,0.17 1.23,0.512 l 15.37,15.445 15.369,-15.445 c 0.34,-0.342 0.783,-0.512 1.228,-0.512 0.446,0 0.891,0.17 1.231,0.512 0.679,0.684 0.679,1.791 0,2.473 z" /></g><g
           transform="translate(336.1799,38.7249)"
           id="g164"><path
             id="path166"
             style="fill:#1eb2a7;fill-opacity:1;fill-rule:nonzero;stroke:none"
             d="m 0,0 2.078,2.09 c 0.453,0.455 0.453,1.193 0,1.648 -0.451,0.455 -1.185,0.455 -1.639,0 l -2.08,-2.09 -2.078,2.09 c -0.453,0.455 -1.187,0.455 -1.64,0 -0.453,-0.455 -0.453,-1.193 0,-1.648 L -3.279,0 -5.359,-2.09 c -0.453,-0.455 -0.453,-1.193 0,-1.648 0.226,-0.227 0.523,-0.34 0.82,-0.34 0.297,0 0.594,0.113 0.82,0.34 l 2.078,2.09 2.08,-2.09 c 0.227,-0.227 0.524,-0.34 0.821,-0.34 0.297,0 0.594,0.113 0.818,0.34 0.453,0.455 0.453,1.193 0,1.648 z" /></g><g
           transform="translate(322.0159,56.9358)"
           id="g168"><path
             id="path170"
             style="fill:#1eb2a7;fill-opacity:1;fill-rule:nonzero;stroke:none"
             d="M 0,0 -4.342,-4.363 -8.684,0 h -4.92 l 8.032,-8.068 c 0.34,-0.342 0.785,-0.512 1.228,-0.512 h 0.002 0.002 c 0.444,0 0.889,0.17 1.229,0.512 L 4.92,0 Z" /></g><g
           transform="translate(355.2151,56.9358)"
           id="g172"><path
             id="path174"
             style="fill:#1eb2a7;fill-opacity:1;fill-rule:nonzero;stroke:none"
             d="M 0,0 -4.342,-4.363 -8.682,0 h -4.92 l 8.03,-8.068 c 0.34,-0.342 0.785,-0.512 1.23,-0.512 h 0.002 c 0.445,0 0.891,0.17 1.231,0.512 L 4.92,0 Z" /></g><g
           transform="translate(322.0159,20.0765)"
           id="g176"><path
             id="path178"
             style="fill:#1eb2a7;fill-opacity:1;fill-rule:nonzero;stroke:none"
             d="M 0,0 -4.342,4.363 -8.684,0 h -4.92 l 8.032,8.07 c 0.34,0.342 0.785,0.512 1.228,0.512 h 0.002 0.002 c 0.444,0 0.889,-0.17 1.229,-0.512 L 4.92,0 Z" /></g><g
           transform="translate(355.2151,20.0765)"
           id="g180"><path
             id="path182"
             style="fill:#1eb2a7;fill-opacity:1;fill-rule:nonzero;stroke:none"
             d="M 0,0 -4.342,4.363 -8.682,0 h -4.92 l 8.03,8.07 c 0.34,0.342 0.785,0.512 1.23,0.512 h 0.002 c 0.445,0 0.891,-0.17 1.231,-0.512 L 4.92,0 Z" /></g><g
           transform="translate(400.6682,24.2952)"
           id="g184"><path
             id="path186"
             style="fill:#1eb2a7;fill-opacity:1;fill-rule:nonzero;stroke:none"
             d="M 0,0 -14.139,14.211 0,28.422 14.141,14.211 Z M 19.061,14.211 34.43,29.656 c 0.679,0.684 0.679,1.791 0,2.473 -0.68,0.684 -1.782,0.684 -2.461,0 L 16.6,16.684 1.232,32.129 C 0.891,32.471 0.447,32.643 0,32.641 -0.445,32.643 -0.891,32.471 -1.232,32.129 L -16.6,16.684 -31.969,32.129 c -0.679,0.684 -1.779,0.684 -2.459,0 -0.679,-0.682 -0.679,-1.789 0,-2.473 L -19.059,14.211 -34.428,-1.234 c -0.679,-0.682 -0.679,-1.789 0,-2.473 0.34,-0.342 0.785,-0.512 1.229,-0.512 0.445,0 0.89,0.17 1.23,0.512 L -16.6,11.738 -1.232,-3.707 c 0.341,-0.342 0.785,-0.512 1.23,-0.512 H 0 0.002 c 0.445,0 0.891,0.17 1.23,0.512 L 16.6,11.738 31.969,-3.707 c 0.34,-0.342 0.785,-0.512 1.23,-0.512 0.446,0 0.891,0.17 1.231,0.512 0.679,0.684 0.679,1.791 0,2.473 z" /></g><g
           transform="translate(388.4104,56.9358)"
           id="g188"><path
             id="path190"
             style="fill:#1eb2a7;fill-opacity:1;fill-rule:nonzero;stroke:none"
             d="M 0,0 -4.342,-4.363 -8.684,0 h -4.92 l 8.032,-8.068 c 0.34,-0.342 0.785,-0.512 1.228,-0.512 h 0.002 c 0.446,0 0.891,0.17 1.231,0.512 L 4.92,0 Z" /></g><g
           transform="translate(388.4104,20.0765)"
           id="g192"><path
             id="path194"
             style="fill:#1eb2a7;fill-opacity:1;fill-rule:nonzero;stroke:none"
             d="M 0,0 -4.342,4.363 -8.684,0 h -4.92 l 8.032,8.07 c 0.34,0.342 0.785,0.512 1.228,0.512 h 0.002 c 0.446,0 0.891,-0.17 1.231,-0.512 L 4.92,0 Z" /></g></g></g></g></svg>