<svg xmlns="http://www.w3.org/2000/svg" viewBox="0 0 237.55 279.44"><defs><style>.cls-1{fill:#44b49d;}.cls-2{fill:#d8448a;}</style></defs><title>Logo_Color</title><g id="Capa_2" data-name="Capa 2"><g id="Capa_1-2" data-name="Capa 1"><g id="g886"><path id="path888" class="cls-1" d="M118.76,76.82A24.45,24.45,0,0,1,94.31,52.37C94.31,38.86,118.76,10,118.76,10s24.46,28.9,24.46,42.41a24.46,24.46,0,0,1-24.46,24.45m0-76.82S87.32,35,87.32,52.37a31.44,31.44,0,1,0,62.88,0C150.2,35,118.76,0,118.76,0"/></g><g id="g890"><path id="path892" class="cls-2" d="M118.76,10s-24.45,28.9-24.45,42.4a24.46,24.46,0,1,0,48.91,0c0-13.5-24.46-42.4-24.46-42.4"/></g><g id="g894"><path id="path896" class="cls-2" d="M118.77,181.62a41.92,41.92,0,1,1,41.92-41.92,41.92,41.92,0,0,1-41.92,41.92m0-90.83a48.91,48.91,0,1,0,48.91,48.91,48.91,48.91,0,0,0-48.91-48.91"/></g><g id="g898"><path id="path900" class="cls-2" d="M206.11,164.16a24.46,24.46,0,1,1,24.45-24.46,24.46,24.46,0,0,1-24.45,24.46m0-55.9a31.44,31.44,0,1,0,31.44,31.44,31.44,31.44,0,0,0-31.44-31.44"/></g><g id="g902"><path id="path904" class="cls-1" d="M206.11,115.25a24.46,24.46,0,1,0,24.45,24.45,24.45,24.45,0,0,0-24.45-24.45"/></g><g id="g906"><path id="path908" class="cls-2" d="M31.44,164.16A24.46,24.46,0,1,1,55.89,139.7a24.45,24.45,0,0,1-24.45,24.46m0-55.9A31.44,31.44,0,1,0,62.88,139.7a31.44,31.44,0,0,0-31.44-31.44"/></g><g id="g910"><path id="path912" class="cls-1" d="M31.44,115.25A24.46,24.46,0,1,0,55.89,139.7a24.44,24.44,0,0,0-24.45-24.45"/></g><g id="g914"><path id="path916" class="cls-1" d="M157.71,90.32l11.49-22.1,21,21-22.07,11.53a63.61,63.61,0,0,0-10.46-10.46m9.67-33.8-18.68,36A54.69,54.69,0,0,1,166,109.78L202,91.1Z"/></g><g id="g918"><path id="path920" class="cls-2" d="M169.2,68.22l-11.49,22.1a64,64,0,0,1,10.46,10.46l22.07-11.53Z"/></g><g id="g922"><path id="path924" class="cls-1" d="M69.39,100.74,47.32,89.27l21-21L79.87,90.31a63.64,63.64,0,0,0-10.48,10.43m.76-44.25L35.56,91.08l36,18.7a55.75,55.75,0,0,1,17.29-17.3Z"/></g><g id="g926"><path id="path928" class="cls-2" d="M68.35,68.22l-21,21,22.07,11.47A63.24,63.24,0,0,1,79.87,90.31Z"/></g><g id="g930"><path id="path932" class="cls-1" d="M68.34,211.16l-21-21L69.36,178.6a64.87,64.87,0,0,0,10.45,10.46Zm3.22-41.53-36,18.67,34.58,34.59,18.68-36a55.85,55.85,0,0,1-17.29-17.29"/></g><g id="g934"><path id="path936" class="cls-2" d="M69.36,178.6,47.3,190.12l21,21,11.47-22.1A64.87,64.87,0,0,1,69.36,178.6"/></g><g id="g938"><path id="path940" class="cls-1" d="M157.67,189.12a66.78,66.78,0,0,0,10.48-10.49l22.11,11.49L169.2,211.19ZM166,169.63a56.11,56.11,0,0,1-17.3,17.29l18.68,36L202,188.31Z"/></g><g id="g942"><path id="path944" class="cls-2" d="M168.15,178.63a66.78,66.78,0,0,1-10.48,10.49l11.52,22.07,21.07-21.07Z"/></g><g id="g946"><path id="path948" class="cls-1" d="M100.37,199.86a64.45,64.45,0,0,0,36.82,0l21.19,72.6H79.18Zm41.41-9.2A55.51,55.51,0,0,1,119,195.6h-.42a55.51,55.51,0,0,1-22.8-4.94l-25.9,88.78h97.82Z"/></g><g id="g950"><path id="path952" class="cls-2" d="M137.19,199.85a64.45,64.45,0,0,1-36.82,0L79.18,272.45h79.2Z"/></g><g id="g958"><path id="path960" class="cls-1" d="M146.72,139.7a28,28,0,0,1-55.9,0H101.3a17.47,17.47,0,0,0,34.94,0h10.48Zm-35.83-23.15a24.21,24.21,0,0,1,6.56-1.26c.43,0,.87,0,1.32,0s.89,0,1.32,0a24.14,24.14,0,0,1,6.56,1.26c11,4,11.89,16.15,11.89,16.16H129.6l.06,0,.1-.09a3.57,3.57,0,0,0,.27-.28l0,0a3.38,3.38,0,0,0,.82-2.21,3.45,3.45,0,0,0-6.11-2.17.22.22,0,0,1,0,.08,3.41,3.41,0,0,0-.71,2v16.68H113.52s0-16.8,0-16.86-.09-.58-.09-.6a3.54,3.54,0,0,0-.4-1h0l-.12-.18a1.77,1.77,0,0,0-.16-.22,3.43,3.43,0,1,0-5.27,4.4l0,0,.29.3a.27.27,0,0,1,.08.07l.07,0H99s.88-12.13,11.89-16.16m7.88-18.77a41.92,41.92,0,1,0,41.92,41.92,41.92,41.92,0,0,0-41.92-41.92"/></g><g id="g962"><path id="path964" class="cls-2" d="M136.24,139.7a17.47,17.47,0,0,1-34.94,0H90.82a27.95,27.95,0,0,0,55.9,0Z"/></g><g id="g966"><path id="path968" class="cls-2" d="M106.67,132.71h1.26l-.07,0a.27.27,0,0,0-.08-.07l-.29-.3,0,0a3.43,3.43,0,1,1,5.27-4.4c.06.07.11.15.16.22l.12.18h0a3.42,3.42,0,0,1,.4,1s.09.52.09.6,0,16.86,0,16.86H124V130a3.47,3.47,0,0,1,.7-2s0,0,.07-.08a3.43,3.43,0,0,1,6.09,2.17,3.37,3.37,0,0,1-.81,2.21l0,0a3.57,3.57,0,0,1-.27.28l-.1.09-.06,0h8.94s-.88-12.13-11.89-16.16a24.14,24.14,0,0,0-6.56-1.26c-.43,0-.87,0-1.32,0s-.89,0-1.32,0a24.07,24.07,0,0,0-6.55,1.26c-11,4-11.89,16.15-11.9,16.16Z"/></g></g></g></svg>