<svg xmlns="http://www.w3.org/2000/svg" viewBox="0 0 402.59 226.34"><defs><style>.cls-1{fill:#673e24;}.cls-2{fill:#44b49d;}.cls-3{fill:#d8448a;}</style></defs><title>Recurso 2</title><g id="Capa_2" data-name="Capa 2"><g id="Capa_1-2" data-name="Capa 1"><g id="g838"><path id="path840" class="cls-1" d="M235.27,43v61.07a4.31,4.31,0,0,0,1.85,3.81,2.36,2.36,0,0,1,1.27,2V112c0,.75-.43,1.12-1.27,1.12H221.91c-.72,0-1.07-.34-1.07-1v-2.29a2.41,2.41,0,0,1,1.27-2,4.4,4.4,0,0,0,1.85-3.81V43h-2.15a3.89,3.89,0,0,0-3.53,1.8q-1.16,1.81-2.07,7.95a.9.9,0,0,1-1,.83h-1.9c-1.1,0-1.65-.47-1.65-1.42V38c0-1.1.51-1.66,1.55-1.66a26.58,26.58,0,0,1,3.47.39,41.21,41.21,0,0,0,6,.64h17.25c.88-.13,1.95-.31,3.22-.54,2-.29,3-.44,3.22-.44.88,0,1.31.41,1.31,1.22V52.17c0,.95-.42,1.42-1.26,1.42h-1.86c-.74,0-1.19-.21-1.34-.64a32.22,32.22,0,0,1-.7-3.16,16.66,16.66,0,0,0-1.81-5.49A3.73,3.73,0,0,0,237.46,43Z"/></g><g id="g842"><path id="path844" class="cls-1" d="M260.1,88.83q-6.89,2.53-6.87,11.16c0,4.52,1.18,6.77,3.55,6.77a2.71,2.71,0,0,0,2.44-1.53,6.64,6.64,0,0,0,.88-3.39Zm0-5V77q0-6-4.68-6c-1.11,0-1.66.34-1.66,1a3.86,3.86,0,0,0,.29,1.17,6.6,6.6,0,0,1,.59,2.44,4.3,4.3,0,0,1-4.58,4.43,5,5,0,0,1-3.76-1.43,5.17,5.17,0,0,1-1.41-3.78,7.35,7.35,0,0,1,3.44-6.26,13.49,13.49,0,0,1,8-2.42q6.39,0,9.93,3.44t3.53,9.72V103.6a8.8,8.8,0,0,0,.41,3A2.28,2.28,0,0,0,272,108c.78.17,1.17.59,1.17,1.27v2.1q0,2.58-4,2.58-5.34,0-7.39-5.17-4.68,5.42-9,5.41a8.3,8.3,0,0,1-6.83-3.43,13.88,13.88,0,0,1-2.69-8.8q0-13.75,16.87-18.09"/></g><g id="g846"><path id="path848" class="cls-1" d="M278.35,105.55V75.27a3.76,3.76,0,0,0-2.09-3.7,1.38,1.38,0,0,1-.88-1.28V68.47c0-.6.36-.91,1.07-.94L288,67.19v4q4.14-4.43,9.07-4.43a6.71,6.71,0,0,1,5.72,2.82,12.11,12.11,0,0,1,2.07,7.36v29.2a5,5,0,0,0,1.32,3.12,2.51,2.51,0,0,1,.64,1.07v2.05c0,.52-.25.78-.74.78H294.19c-.55,0-.83-.26-.83-.78v-2.53a1,1,0,0,1,.54-.78,3,3,0,0,0,1.32-2.44V76.93q0-3.56-2.54-3.55T288,76.3v29.83a4.15,4.15,0,0,0,1.12,2.88c.36.39.54.66.54.83v2.68c0,.42-.23.63-.68.63H276.89c-.52,0-.78-.24-.78-.73v-2.58c0-.23.21-.51.63-.83a4.16,4.16,0,0,0,1.61-3.46"/></g><g id="g850"><path id="path852" class="cls-1" d="M312.93,72.45h-1.71c-.74,0-1.12-.32-1.12-1V69a2.34,2.34,0,0,1,1.08-1.85,4.58,4.58,0,0,0,1.8-2.32,16.15,16.15,0,0,0,.39-4.22v-8c0-.78.52-1.23,1.56-1.36l5.95-.64q.78-.09,1-.09c.45,0,.68.39.68,1.17V67.19h5c.95,0,1.42.37,1.42,1.12v3c0,.78-.38,1.17-1.12,1.17h-5.27v29.64q0,4.81,3,4.82a6,6,0,0,0,1.46-.19,3.25,3.25,0,0,1,.83-.15,1.07,1.07,0,0,1,1.12.68l.73,2.34a1.06,1.06,0,0,1,.14.44c0,.72-1.07,1.58-3.21,2.61a14.16,14.16,0,0,1-6.05,1.53q-7.65,0-7.65-9.5Z"/></g><g id="g854"><path id="path856" class="cls-1" d="M339.42,41.4a5.75,5.75,0,0,1,4.24,1.71,5.62,5.62,0,0,1,1.71,4.14,5.83,5.83,0,0,1-11.65,0,5.46,5.46,0,0,1,1.78-4.19,5.64,5.64,0,0,1,3.92-1.66m5.07,25.79V105.4a3.74,3.74,0,0,0,2.1,3.61,1.53,1.53,0,0,1,.87,1.41v1.8c0,.62-.35.93-1.07.93H332.94c-.72,0-1.07-.31-1.07-.93v-1.8a1.45,1.45,0,0,1,.92-1.41,3.69,3.69,0,0,0,2-3.61V75.27a3.82,3.82,0,0,0-2.1-3.7,1.45,1.45,0,0,1-.87-1.28V68.46c0-.59.35-.9,1.07-.93Z"/></g><g id="g858"><path id="path860" class="cls-1" d="M352.7,72.45H351c-.75,0-1.12-.32-1.12-1V69A2.33,2.33,0,0,1,351,67.19a4.58,4.58,0,0,0,1.8-2.32,16.15,16.15,0,0,0,.39-4.22v-8c0-.78.52-1.23,1.56-1.36l5.95-.64q.78-.09,1-.09c.46,0,.68.39.68,1.17V67.19h5c.94,0,1.41.37,1.41,1.12v3c0,.78-.38,1.17-1.12,1.17h-5.27v29.64q0,4.81,3,4.82a6,6,0,0,0,1.46-.19,3.32,3.32,0,0,1,.83-.15,1.06,1.06,0,0,1,1.12.68l.73,2.34a1.12,1.12,0,0,1,.15.44c0,.72-1.08,1.58-3.22,2.61a14.16,14.16,0,0,1-6,1.53q-7.65,0-7.65-9.5Z"/></g><g id="g862"><path id="path864" class="cls-1" d="M389.53,88.83q-6.88,2.53-6.88,11.16c0,4.52,1.19,6.77,3.56,6.77a2.71,2.71,0,0,0,2.44-1.53,6.74,6.74,0,0,0,.88-3.39Zm0-5V77q0-6-4.68-6c-1.11,0-1.66.34-1.66,1a3.86,3.86,0,0,0,.29,1.17,6.6,6.6,0,0,1,.59,2.44,4.3,4.3,0,0,1-4.58,4.43,5,5,0,0,1-3.76-1.43,5.17,5.17,0,0,1-1.41-3.78,7.34,7.34,0,0,1,3.43-6.26,13.54,13.54,0,0,1,8-2.42q6.39,0,9.92,3.44t3.54,9.72V103.6a8.56,8.56,0,0,0,.41,3,2.28,2.28,0,0,0,1.83,1.34c.78.17,1.17.59,1.17,1.27v2.1q0,2.58-4,2.58-5.36,0-7.39-5.17-4.69,5.42-9,5.41a8.31,8.31,0,0,1-6.84-3.43,13.88,13.88,0,0,1-2.68-8.8q0-13.75,16.87-18.09"/></g><g id="g866"><path id="path868" class="cls-1" d="M248.18,191.61q-.48,9.06-4.46,14.3a12.34,12.34,0,0,1-10.31,5.24q-9.06,0-14.55-9.86t-5.48-28.86q0-18.77,5.34-28.91t13.72-10.16a15.87,15.87,0,0,1,7.65,2.35,2.13,2.13,0,0,0,.88.29,1.74,1.74,0,0,0,1-.59,1.2,1.2,0,0,1,.83-.54h2.78c.62,0,.93.47.93,1.42v16c0,.91-.31,1.37-.93,1.37H243.4a1.54,1.54,0,0,1-1.38-.54,12.06,12.06,0,0,1-1-2.92q-3-11.27-7.85-11.26a4.84,4.84,0,0,0-4.44,2.92q-1.56,2.92-2.39,11.06a162.85,162.85,0,0,0-.82,16.46q0,18.21,2,26.74t7.17,8.52q6.13,0,8-13.6Z"/></g><g id="g870"><path id="path872" class="cls-1" d="M271,201.21V171a3.21,3.21,0,0,0-1.32-2.29c-.49-.46-.73-.81-.73-1.08v-2.38c0-.59.31-.88.93-.88l10.77-.2v39.25a3.26,3.26,0,0,0,1.31,2.33q.78.69.78,1.08v2.37c0,.59-.32.9-1,.94l-10.77.19v-3.8q-5.26,4.25-9,4.24a7.22,7.22,0,0,1-5.83-2.46,9.69,9.69,0,0,1-2.07-6.46V171a3.22,3.22,0,0,0-1.31-2.29c-.52-.46-.78-.81-.78-1.08v-2.38c0-.59.32-.88,1-.88l10.77-.2v36.42c0,2.33.9,3.5,2.68,3.5q2.34,0,4.59-2.92"/></g><g id="g874"><path id="path876" class="cls-1" d="M298.77,134.38v68.05a3.72,3.72,0,0,0,2.1,3.6,1.55,1.55,0,0,1,.87,1.42v1.8c0,.62-.35.93-1.07.93H287.22c-.71,0-1.07-.31-1.07-.93v-1.8a1.48,1.48,0,0,1,.93-1.42,3.68,3.68,0,0,0,2-3.6v-60a3.82,3.82,0,0,0-2.09-3.7,1.38,1.38,0,0,1-.88-1.28v-1.83c0-.59.36-.89,1.07-.89Z"/></g><g id="g878"><path id="path880" class="cls-1" d="M316.93,172v30.56c1.46,1.6,2.78,2.39,3.95,2.39q2.43,0,3.46-3.73t1-14.89q0-10-1.14-13.18c-.77-2.1-1.92-3.14-3.44-3.14a5.77,5.77,0,0,0-3.85,2m-9.65,45.88V172.2a3.75,3.75,0,0,0-2.1-3.7,1.39,1.39,0,0,1-.88-1.28v-1.83c0-.59.36-.88,1.08-.88l11.26-.39v4.63q3.89-5,8.23-5,5.26,0,8.07,6.11t2.8,16.11a65.34,65.34,0,0,1-1.29,13.38q-1.29,6.17-3.46,9a6.91,6.91,0,0,1-5.78,2.83,11.14,11.14,0,0,1-8.28-3.85v11a3.92,3.92,0,0,0,1.36,3.3,1.47,1.47,0,0,1,.73,1.13v2.66c0,.46-.18.69-.53.69h-13q-.78,0-.78-.69v-2.66c0-.36.25-.7.73-1a4.22,4.22,0,0,0,1.86-3.94"/></g><g id="g882"><path id="path884" class="cls-1" d="M357.26,185.86q-6.87,2.53-6.87,11.16c0,4.51,1.18,6.77,3.56,6.77a2.68,2.68,0,0,0,2.43-1.53,6.7,6.7,0,0,0,.88-3.39Zm0-5v-6.82q0-6-4.68-6c-1.1,0-1.66.34-1.66,1a3.66,3.66,0,0,0,.3,1.17,6.52,6.52,0,0,1,.58,2.44,4.3,4.3,0,0,1-4.58,4.43,5,5,0,0,1-3.75-1.44,5.1,5.1,0,0,1-1.42-3.77,7.36,7.36,0,0,1,3.44-6.27,13.51,13.51,0,0,1,8-2.41q6.39,0,9.92,3.44t3.53,9.72v24.27a8.55,8.55,0,0,0,.42,3,2.25,2.25,0,0,0,1.82,1.34c.78.16,1.17.59,1.17,1.27v2.09q0,2.59-4,2.59-5.35,0-7.4-5.17-4.68,5.42-9,5.41a8.29,8.29,0,0,1-6.83-3.44A13.85,13.85,0,0,1,340.4,199q0-13.75,16.86-18.09"/></g><g id="g886"><path id="path888" class="cls-2" d="M96.2,62.22A19.81,19.81,0,0,1,76.39,42.41C76.39,31.47,96.2,8.07,96.2,8.07S116,31.47,116,42.41A19.8,19.8,0,0,1,96.2,62.22M96.2,0S70.73,28.35,70.73,42.41a25.47,25.47,0,1,0,50.93,0C121.66,28.35,96.2,0,96.2,0"/></g><g id="g890"><path id="path892" class="cls-3" d="M96.2,8.07S76.39,31.48,76.39,42.41a19.81,19.81,0,1,0,39.61,0C116,31.48,96.2,8.07,96.2,8.07"/></g><g id="g894"><path id="path896" class="cls-3" d="M96.2,147.11a34,34,0,1,1,34-34,34,34,0,0,1-34,34m0-73.57a39.62,39.62,0,1,0,39.62,39.61A39.61,39.61,0,0,0,96.2,73.54"/></g><g id="g898"><path id="path900" class="cls-3" d="M166.94,133a19.81,19.81,0,1,1,19.81-19.81A19.81,19.81,0,0,1,166.94,133m0-45.27a25.47,25.47,0,1,0,25.47,25.46,25.46,25.46,0,0,0-25.47-25.46"/></g><g id="g902"><path id="path904" class="cls-2" d="M166.94,93.35a19.81,19.81,0,1,0,19.81,19.8,19.8,19.8,0,0,0-19.81-19.8"/></g><g id="g906"><path id="path908" class="cls-3" d="M25.47,133a19.81,19.81,0,1,1,19.8-19.81A19.81,19.81,0,0,1,25.47,133m0-45.27a25.47,25.47,0,1,0,25.46,25.46A25.46,25.46,0,0,0,25.47,87.69"/></g><g id="g910"><path id="path912" class="cls-2" d="M25.47,93.35a19.81,19.81,0,1,0,19.8,19.8,19.8,19.8,0,0,0-19.8-19.8"/></g><g id="g914"><path id="path916" class="cls-2" d="M127.74,73.15l9.31-17.89,17,17-17.88,9.34a52,52,0,0,0-8.47-8.48m7.83-27.37L120.44,74.91a44.14,44.14,0,0,1,14,14l29.13-15.13Z"/></g><g id="g918"><path id="path920" class="cls-3" d="M137.05,55.26l-9.31,17.89a52,52,0,0,1,8.47,8.48l17.88-9.34Z"/></g><g id="g922"><path id="path924" class="cls-2" d="M56.21,81.6,38.32,72.3l17-17,9.33,17.89a50.86,50.86,0,0,0-8.48,8.45m.61-35.84-28,28L58,88.92a45.09,45.09,0,0,1,14-14Z"/></g><g id="g926"><path id="path928" class="cls-3" d="M55.36,55.26l-17,17,17.89,9.3a50.86,50.86,0,0,1,8.48-8.45Z"/></g><g id="g930"><path id="path932" class="cls-2" d="M55.35,171l-17-17,17.87-9.33a53.33,53.33,0,0,0,8.47,8.48ZM58,137.39,28.83,152.52l28,28L72,151.4a45.2,45.2,0,0,1-14-14"/></g><g id="g934"><path id="path936" class="cls-3" d="M56.18,144.66,38.31,154l17,17,9.3-17.89a52.88,52.88,0,0,1-8.47-8.48"/></g><g id="g938"><path id="path940" class="cls-2" d="M127.71,153.18a53.82,53.82,0,0,0,8.48-8.49L154.11,154,137,171.06Zm6.74-15.79a45.48,45.48,0,0,1-14,14l15.13,29.13,28-28Z"/></g><g id="g942"><path id="path944" class="cls-3" d="M136.19,144.69a53.38,53.38,0,0,1-8.48,8.49L137,171.06,154.11,154Z"/></g><g id="g946"><path id="path948" class="cls-2" d="M81.29,161.88a52.17,52.17,0,0,0,29.83,0l17.16,58.81H64.14Zm33.54-7.45a45,45,0,0,1-18.46,4H96a45,45,0,0,1-18.47-4l-21,71.91h79.23Z"/></g><g id="g950"><path id="path952" class="cls-3" d="M111.12,161.87a52.16,52.16,0,0,1-29.83,0l-17.15,58.8h64.14Z"/></g><g id="g958"><path id="path960" class="cls-2" d="M118.84,113.15a22.64,22.64,0,0,1-45.28,0h8.49a14.15,14.15,0,1,0,28.3,0h8.49Zm-29-18.75a19.83,19.83,0,0,1,5.31-1c.35,0,.71,0,1.07,0s.72,0,1.07,0a19.83,19.83,0,0,1,5.31,1c8.92,3.27,9.63,13.09,9.63,13.09H105l0,0,.08-.07a2.34,2.34,0,0,0,.22-.23l0,0a2.76,2.76,0,0,0,.66-1.79,2.79,2.79,0,0,0-2.79-2.79,2.82,2.82,0,0,0-2.16,1l0,.07a2.74,2.74,0,0,0-.58,1.66v13.5H92s0-13.6,0-13.65-.07-.47-.07-.49a2.53,2.53,0,0,0-.33-.77h0l-.09-.15-.13-.18a2.78,2.78,0,0,0-4.93,1.77,2.8,2.8,0,0,0,.66,1.8l0,0,.23.24.07.06,0,0H80.19s.71-9.82,9.63-13.09M96.2,79.2a34,34,0,1,0,34,34,34,34,0,0,0-34-33.95"/></g><g id="g962"><path id="path964" class="cls-3" d="M110.35,113.15a14.15,14.15,0,1,1-28.3,0H73.56a22.64,22.64,0,0,0,45.28,0Z"/></g><g id="g966"><path id="path968" class="cls-3" d="M86.4,107.49h1l0,0-.07-.06-.23-.24,0,0a2.78,2.78,0,0,1,2.12-4.59,2.78,2.78,0,0,1,2.15,1l.13.18.09.15h0a2.53,2.53,0,0,1,.33.77s.07.42.07.49,0,13.65,0,13.65h8.49v-13.5a2.74,2.74,0,0,1,.58-1.66l0-.07a2.82,2.82,0,0,1,2.16-1,2.78,2.78,0,0,1,2.78,2.79,2.75,2.75,0,0,1-.65,1.79l0,0-.22.23-.08.07,0,0h7.24s-.71-9.82-9.63-13.09a19.83,19.83,0,0,0-5.31-1c-.35,0-.7,0-1.07,0s-.72,0-1.07,0a19.83,19.83,0,0,0-5.31,1c-8.92,3.27-9.63,13.09-9.63,13.09Z"/></g></g></g></svg>